<svg id="Layer_1" data-name="Layer 1" xmlns="http://www.w3.org/2000/svg" width="764.3466" height="764.3466" viewBox="0 0 764.3466 764.3466"><title>loma-sits</title><path d="M673.8375,695.359c-21.9174,16.2969-45.8,25.9054-72.4419,28.3246-6.518.5918-13.088.8542-19.6343.8565q-200.55.0718-401.101.0529c-25.6933.007-50.0586-5.29-72.6064-17.8495-5.9353-3.3061-11.5146-7.2513-17.9056-11.3152,3.3358-3.3962,6.2154-6.3592,9.13-9.2878,5.0063-5.0313,10.0007-10.0752,15.06-15.0527,11.4107-11.226,22.9166-22.3556,34.2593-33.65,4.1178-4.1,7.2553-8.7474,6.0459-15.14-1.0784-5.7-4.3894-9.7116-9.6022-11.6068-4.9973-1.8167-9.8134-1.4791-14.1326,2.8131-18.61,18.4945-37.4308,36.7778-56.1912,55.1211-1.7666,1.7274-3.648,3.3374-5.7058,5.211a130.6026,130.6026,0,0,1-20.2372-35.6043c-6.7547-17.8311-9.2563-36.3-9.2449-55.2967q.1212-201.5982.03-403.1966c-.0038-20.4251,2.7533-40.3943,11.2549-59.0741,4.7539-10.4454,10.9071-20.254,16.8066-31.0384,2.547,2.04,4.2207,3.1585,5.6294,4.546q10.7307,10.57,21.3364,21.2663c11.0613,11.2274,21.9913,22.5846,33.0846,33.78,6.8858,6.9493,14.3873,7.4749,21.6321,2.2986,5.7052-4.0763,7.6374-15.3566,1.5973-20.7654-9.6385-8.6312-17.9577-18.72-27.0543-27.9762-9.4659-9.6322-19.2138-18.9868-28.7842-28.5172-1.6464-1.64-3.0223-3.5509-5.1543-6.0877,7.23-4.4521,13.8057-9.0576,20.8625-12.7423C131.248,44.7363,153.2158,39.78,176.2736,39.7754q205.1609-.0429,410.3217.0028c31.7382.0077,60.7373,8.6335,86.244,27.9526.3192.2417.6692.4429,1.63,1.0733-6.4363,6.3946-12.5481,12.452-18.6436,18.5257q-20.5974,20.5239-41.1626,41.08c-4.5172,4.54-6.829,10.0713-4.4708,16.3273,2.12,5.6249,6.355,9.381,12.6279,10.1007,3.68.4221,6.9791-.1953,9.8869-3.0333,11.083-10.8169,22.4441-21.35,33.4921-32.2016,8.4338-8.284,16.5323-16.9087,24.8293-25.3332,1.4131-1.4349,3.0749-2.625,4.6893-3.9851,17.3707,22.502,27.0857,47.493,28.2342,75.3445.9431,22.8676.8109,45.7872.8244,68.684q.1033,175.1934.0305,350.3871c0,23.4851-4.3259,46.0337-15.2428,66.9775-3.9593,7.5959-8.8557,14.7032-13.9039,22.9841-5.541-5.4788-10.3972-10.2027-15.1676-15.0117-15.03-15.1512-29.9236-30.4387-45.1009-45.44-4.4127-4.3615-10.099-5.8416-16.1832-3.4483-5.6176,2.21-9.3479,6.3391-9.5883,12.4442-.1145,2.9085.6476,6.6638,2.4892,8.7,9.3568,10.3472,19.1,20.353,28.8966,30.2923,9.2874,9.4229,18.8235,18.6,28.2111,27.9249C670.7838,691.6791,672.1506,693.4355,673.8375,695.359ZM542.7114,335.3433c5.7842-.0282,10.848-4.9205,10.8667-10.4987.0186-5.5373-5.1595-10.4777-10.917-10.4159-5.5884.06-10.7646,5.2884-10.6194,10.7264A10.7459,10.7459,0,0,0,542.7114,335.3433ZM502.62,573.34c-5.686.09-10.8605,5.1965-10.75,10.6085A11.0658,11.0658,0,0,0,502.7871,594.36c5.7075-.1811,10.7509-5.3529,10.5688-10.8377C513.1831,578.3185,507.8465,573.2571,502.62,573.34Zm-69.67-349.896A10.85,10.85,0,0,0,422.2741,212.9c-5.6355.0292-10.8384,5.1121-10.8029,10.5539a10.8147,10.8147,0,0,0,10.7608,10.4248A10.6688,10.6688,0,0,0,432.95,223.4441ZM542.6634,495.4762a10.8517,10.8517,0,0,0,10.9145-10.3118c.1476-5.3263-5.25-10.6012-10.821-10.5748-5.4957.0262-10.5617,4.8563-10.7362,10.2363C531.84,490.4013,536.85,495.4154,542.6634,495.4762Zm-69.5078,29.405c-.1059-5.3964-5.16-10.2154-10.6667-10.1705a10.9006,10.9006,0,0,0-10.788,11.011c.1507,5.2852,5.3676,10.0451,10.9257,9.9687A10.9743,10.9743,0,0,0,473.1556,524.8812ZM502.613,554.156c5.712.048,10.6567-4.5114,10.7307-9.8946a11.1026,11.1026,0,0,0-10.7051-11.0248c-5.49-.0726-10.7562,5.0419-10.8441,10.5307C491.7066,549.263,496.7508,554.1068,502.613,554.156ZM141.2764,495.5789c5.6629-.0875,10.8617-5.2185,10.7366-10.5968-.1286-5.533-5.3448-10.4624-11.0157-10.41-5.3638.05-10.51,5.15-10.5449,10.452C130.4152,490.6171,135.5935,495.6667,141.2764,495.5789Zm521.7605,58.7488c5.7907.0245,11.134-5.186,11.0283-10.7543-.1042-5.4889-5.3051-10.3931-10.9519-10.3272a10.683,10.683,0,0,0-10.4711,10.7252A10.93,10.93,0,0,0,663.0369,554.3277ZM210.868,565.0969a10.9133,10.9133,0,0,0,10.5246,10.7344c5.4569.067,10.67-4.9,10.9405-10.4235.2523-5.1571-5.3191-10.7438-10.7009-10.7305A10.7366,10.7366,0,0,0,210.868,565.0969Zm80.2667,39.9071a10.6884,10.6884,0,1,0,10.5443-10.3453C296.2585,594.7423,291.1743,599.7305,291.1347,605.004Zm-69.55,50.7355a10.9092,10.9092,0,0,0,10.72-10.5231c.0325-5.326-5.3785-10.5574-10.8185-10.46-5.71.1027-10.7277,5.1228-10.6449,10.6494A10.5817,10.5817,0,0,0,221.5846,655.74Zm361.69-442.754a10.7582,10.7582,0,0,0-11.0971,10.4756c-.0148,5.2756,4.9771,10.27,10.43,10.4363,5.7434.1746,10.9377-4.5888,11.061-10.1436A10.77,10.77,0,0,0,583.2743,212.9855ZM141.3005,535.6688a10.9611,10.9611,0,0,0,10.6756-10.7051c-.0663-5.5658-5.2912-10.3345-11.1542-10.1805A10.6688,10.6688,0,0,0,130.4869,525.6C130.6091,531.0013,135.7355,535.775,141.3005,535.6688Zm251.4206-50.6436a10.6605,10.6605,0,0,0-10.6855-10.4477c-5.6625.1-10.6691,5.1635-10.55,10.67a10.8567,10.8567,0,0,0,10.76,10.43A10.5685,10.5685,0,0,0,392.7211,485.0252Zm150.0688,50.64a10.9706,10.9706,0,0,0,10.76-10.6109c-.001-5.5418-5.2121-10.3837-11.055-10.2719a10.75,10.75,0,0,0-10.4522,10.7342C532.1342,530.879,537.2711,535.73,542.79,535.6656Zm69.6147-250.8964a10.7484,10.7484,0,0,0,10.5362,10.6533c5.8889-.0411,11.0958-5.2056,10.9509-10.8618-.1352-5.2763-5.67-10.4048-11.0917-10.2772C617.43,274.41,612.3994,279.4845,612.4046,284.7692ZM261.73,193.83a11.1182,11.1182,0,0,0,10.76-10.4634c.1214-5.2567-5.291-10.5607-10.8147-10.5981a10.9633,10.9633,0,0,0-10.5988,10.68A10.4365,10.4365,0,0,0,261.73,193.83ZM210.8378,405.1359a10.9185,10.9185,0,0,0,10.75,10.5313c5.3261.0069,10.72-5.3859,10.6881-10.6861-.0321-5.3511-5.45-10.6031-10.8791-10.5468A10.9217,10.9217,0,0,0,210.8378,405.1359Zm222.1007,59.0683a10.903,10.903,0,0,0-10.5662-11.0914c-5.35-.143-10.6964,5.0711-10.8113,10.5443-.1091,5.1958,4.7894,10.2731,10.237,10.6108C427.2962,474.6086,432.6963,469.73,432.9385,464.2042ZM261.6894,554.3265c5.5988-.1039,10.7459-5.1273,10.8206-10.56.0757-5.5108-5.4343-10.68-11.1964-10.5043a10.6806,10.6806,0,0,0-10.24,10.9375A10.9605,10.9605,0,0,0,261.6894,554.3265Zm-40.2421-419.17a10.9176,10.9176,0,0,0,10.8313-10.3987c.144-5.2855-5.2514-10.6467-10.6807-10.613-5.7028.0353-10.7777,5-10.7585,10.5251A10.5875,10.5875,0,0,0,221.4473,135.1569ZM352.6444,423.8057A10.9108,10.9108,0,0,0,342.5681,413.09c-5.7193-.1933-11.1121,4.6324-11.2834,10.0966a10.9166,10.9166,0,0,0,10.337,10.9925C347.2414,434.3761,352.5521,429.3782,352.6444,423.8057ZM432.952,663.8276c-.0121-5.4513-5.24-10.5691-10.7975-10.5707-5.2992-.0015-10.4573,5.2691-10.5559,10.7862-.0949,5.31,5.4524,10.6848,10.8645,10.5262A10.7856,10.7856,0,0,0,432.952,663.8276Zm69.3732-450.8449c-5.3481.0777-10.49,5.1651-10.5215,10.411-.0344,5.6488,5.3056,10.624,11.2605,10.4914,5.2274-.1165,10.3163-5.1457,10.2783-10.1579A10.9211,10.9211,0,0,0,502.3252,212.9827Zm-69.3727-69.3045c.2059-5.6555-4.9881-10.9929-10.74-11.0366-5.3133-.04-10.395,5.1267-10.562,10.7393-.1548,5.2034,4.87,10.3018,10.3516,10.5037A10.6953,10.6953,0,0,0,432.9525,143.6782ZM140.989,255.4531c5.556.0285,11.1017-5.2487,10.9722-10.4411-.1415-5.6763-5.0576-10.7188-10.5572-10.8286-5.61-.112-10.9986,5.2463-10.961,10.9C130.4779,250.33,135.6607,255.4258,140.989,255.4531ZM503.0006,252.97c-5.9651-.0994-11.21,4.8416-11.1422,10.4973.0655,5.4943,5.24,10.5387,10.7955,10.523a11.0145,11.0145,0,0,0,10.7023-10.6134C513.4424,257.9439,508.5852,253.0626,503.0006,252.97Zm40.1278-98.6653c-5.9476-.0654-11.1016,4.8762-11.0942,10.6372.0069,5.36,5.0282,10.2189,10.6233,10.2787,5.7243.0613,10.8594-4.8477,10.92-10.4394C553.6344,159.61,548.4,154.3623,543.1284,154.3043ZM181.1,514.2323c5.9771.0142,11.1224-4.9741,11.0324-10.6956-.0809-5.1468-5.2911-10.2923-10.5842-10.4528-5.6061-.17-10.8616,5.0957-10.87,10.8912A10.6293,10.6293,0,0,0,181.1,514.2323Zm401.5189,80.0851a10.8371,10.8371,0,0,0,11.0619-10.7321c.0216-5.0649-5.4274-10.3785-10.6442-10.38-5.46-.0016-10.6414,4.8784-10.8286,10.1984A10.8715,10.8715,0,0,0,582.6187,594.3174Zm.4249,80.188c5.4306.0936,10.6163-5.105,10.6484-10.6747.03-5.3122-5.3968-10.5911-10.834-10.5377-5.4551.0535-10.5646,5.2394-10.6151,10.7739C572.1927,669.5536,577.2125,674.405,583.0436,674.5054Zm-280.52-159.7379c-5.9868-.2192-11.2148,4.5014-11.3584,10.2562a10.688,10.688,0,1,0,11.3584-10.2562ZM462.5164,154.3046a10.9955,10.9955,0,0,0-10.8159,10.8679c.1018,5.2672,5.2154,10.0448,10.7525,10.046a10.46,10.46,0,1,0,.0634-20.9139Zm-211.4386,309.55a10.7241,10.7241,0,0,0,10.8677,10.4023c5.5072-.1652,10.7508-5.6021,10.5786-10.9687-.1611-5.02-5.7387-10.256-10.9249-10.2562C256.1649,453.0319,251.0305,458.3132,251.0778,463.8547ZM502.4562,193.8038c5.8989-.0143,11.0242-4.8736,10.8861-10.3212-.1461-5.7663-5.15-10.7239-10.7556-10.6569a11.23,11.23,0,0,0-10.7477,10.6571C491.713,188.7133,496.9633,193.8171,502.4562,193.8038ZM221.3568,474.5649c-5.476.0439-10.528,5.1887-10.5152,10.7085.0124,5.3531,4.9881,10.3084,10.4149,10.3724,5.9048.07,11.1714-5.0114,11.072-10.6818C232.2347,479.6091,226.8662,474.5208,221.3568,474.5649ZM111.7884,463.5408c-.0269-5.4653-5.2236-10.4262-10.9336-10.4372-5.4374-.0106-10.5948,5.2729-10.55,10.8082.0434,5.4,5.2715,10.3732,10.9074,10.3747C106.6546,474.288,111.8155,469.0445,111.7884,463.5408ZM181.495,354.0562c5.6928-.0482,10.8039-5.2153,10.6371-10.7538-.158-5.2449-5.626-10.2611-11.25-10.32-5.0838-.0534-10.2786,5.3935-10.21,10.7049A10.83,10.83,0,0,0,181.495,354.0562Zm.3388-141.0685a10.752,10.752,0,0,0-11.2162,10.32c-.0816,5.496,4.9757,10.5294,10.6469,10.5967a10.4622,10.4622,0,1,0,.5693-20.9165Zm210.8855-88.2133a10.5166,10.5166,0,0,0-10.4344-10.6365,10.85,10.85,0,0,0-10.8081,10.3884,10.7159,10.7159,0,0,0,10.5525,10.6223A10.3908,10.3908,0,0,0,392.7193,124.7744ZM382.23,335.3512a10.4261,10.4261,0,0,0,10.49-10.6062A10.7607,10.7607,0,0,0,382.24,314.43c-5.77.0493-10.8141,5.0064-10.76,10.5745A10.3962,10.3962,0,0,0,382.23,335.3512Zm-241.2388-.0075c5.7929.03,10.8668-4.7194,11.019-10.3144.1466-5.39-5.3782-10.5936-11.2484-10.5949-5.1122-.0012-10.2619,5.2982-10.2964,10.5957C130.43,330.409,135.437,335.3149,140.991,335.3437Zm321.5994-39.97A10.9611,10.9611,0,0,0,473.1817,284.64c-.0536-5.22-5.3107-10.33-10.6377-10.3411-5.4689-.011-10.8937,5.29-10.855,10.6076A10.991,10.991,0,0,0,462.59,295.3736ZM101.1125,554.1554a10.5328,10.5328,0,0,0,10.6225-10.0608c.1957-5.7093-5.0809-10.7612-11.0119-10.8552-5.1059-.0809-10.4042,5.2307-10.4938,10.52C90.1356,549.29,95.2605,554.185,101.1125,554.1554Zm79.9692.0027c5.9351.0453,10.96-4.62,11.023-10.2335.0615-5.4782-5.0977-10.6069-10.7245-10.6611-5.5384-.0533-10.748,5.06-10.7626,10.5643A10.6885,10.6885,0,0,0,181.0817,554.1581ZM513.3562,463.713c.0739-5.4928-4.9544-10.4286-10.7764-10.5782-5.2686-.1354-10.6743,5.2273-10.72,10.6346-.0452,5.3747,5.1194,10.4117,10.7793,10.513C508.1473,474.381,513.2808,469.3182,513.3562,463.713ZM301.7518,135.1709c5.7912.06,10.803-4.79,10.7518-10.4054a11.266,11.266,0,0,0-10.766-10.6859c-5.1269-.0033-10.5646,5.3586-10.62,10.4717A10.7157,10.7157,0,0,0,301.7518,135.1709ZM100.9065,594.3462c5.567.0077,10.7321-4.7846,10.8591-10.0754.1291-5.3753-5.1786-10.9373-10.4774-10.98-5.6163-.0447-10.9523,4.9555-11.0724,10.3754C90.0951,589.1164,95.3226,594.3384,100.9065,594.3462Zm332.0471-10.7368c-.05-5.5868-5.1557-10.3145-11-10.1856-5.49.1212-10.5935,5.2506-10.4473,10.5a11.1533,11.1533,0,0,0,10.8781,10.448A10.9132,10.9132,0,0,0,432.9536,583.6094ZM462.4621,114.14c-5.5174.0028-10.8642,5.32-10.7722,10.7128a10.7445,10.7445,0,0,0,21.4826-.4819C473.1059,119.1706,467.8367,114.1373,462.4621,114.14Zm80.383,501.6887c5.156.058,10.6982-5.2483,10.6993-10.2441.0014-5.6461-5.3545-11.03-10.9181-10.9765-5.1965.05-10.4485,5.22-10.5846,10.4176C531.8921,610.7371,536.9173,615.7621,542.8451,615.8288ZM170.6771,143.4054c-.1,5.4554,4.8966,10.33,10.7423,10.479,5.3524.1364,10.6414-5.1093,10.7063-10.6186.0623-5.2938-5.36-10.6111-10.7945-10.5859C175.9414,132.7049,170.7785,137.9024,170.6771,143.4054Zm80.3944,480.5423A10.9523,10.9523,0,0,0,261.86,634.4942c5.28-.09,10.4847-5.2828,10.55-10.5254a10.84,10.84,0,0,0-10.682-10.5609A10.5781,10.5781,0,0,0,251.0715,623.9477ZM502.7508,373.1118c-5.646-.0815-10.9355,4.9578-10.9488,10.4311a10.9146,10.9146,0,0,0,10.4029,10.482c5.7663.1546,11.2-4.8027,11.1367-10.16A11.0092,11.0092,0,0,0,502.7508,373.1118Zm-200.83,282.6588a10.6436,10.6436,0,0,0,10.5838-10.1474,11.23,11.23,0,0,0-10.5179-10.9092c-5.395-.0915-10.8767,5.2779-10.8385,10.6166A10.6172,10.6172,0,0,0,301.9205,655.7706Zm90.7978-10.268a10.5053,10.5053,0,0,0-10.3237-10.7521,10.8738,10.8738,0,0,0-10.9129,10.2831c-.0853,5.6277,4.9041,10.81,10.4236,10.8272A10.5748,10.5748,0,0,0,392.7183,645.5026ZM181.4829,674.5063c5.4253.09,10.6164-5.1177,10.6443-10.678.0266-5.3161-5.4144-10.599-10.85-10.5344-5.4265.0645-10.5388,5.2637-10.6,10.78C170.6172,669.5305,175.6712,674.41,181.4829,674.5063Zm160.616-21.262c-5.3489-.0564-10.73,5.2368-10.8124,10.6365-.0838,5.47,5.04,10.5957,10.6594,10.662,5.4336.0642,10.7994-5.1744,10.7973-10.5412C352.741,658.6682,347.43,653.3007,342.0989,653.2443ZM502.5366,92.8013c-5.5405-.03-10.7488,5.1166-10.6776,10.5512.071,5.4193,5.3311,10.5146,10.8352,10.4957a11.0146,11.0146,0,0,0,10.6614-10.6467C513.4117,97.6794,508.37,92.833,502.5366,92.8013ZM352.6525,103.5221a10.821,10.821,0,0,0-10.4661-10.8162c-5.4419-.3372-10.8929,5.0624-10.9,10.4908A10.9292,10.9292,0,0,0,342.0238,113.81C347.5775,113.7991,352.579,108.9581,352.6525,103.5221Zm-50.8032,50.775c-5.6633.0066-10.7855,5.0767-10.7123,10.6032a10.8372,10.8372,0,0,0,10.5619,10.3121,10.6677,10.6677,0,0,0,10.8522-10.379A10.7776,10.7776,0,0,0,301.8493,154.2971ZM140.98,554.5978c-5.4982.128-10.653,5.4465-10.5368,10.8714.1168,5.4555,5.51,10.5146,10.9923,10.3116,5.5435-.2054,10.7822-5.5758,10.5014-10.7655C151.6424,559.5744,146.2784,554.4745,140.98,554.5978Zm481.9374-.0953c-5.6874.1684-10.5818,5.427-10.4846,11.2649.0881,5.287,5.3152,10.1532,10.7847,10.04,5.6294-.1166,10.8224-5.3433,10.61-10.6787C633.6063,559.5886,628.2231,554.3454,622.9172,554.5025ZM301.7,234.1969c-5.2043-.0766-10.5513,5.2116-10.5438,10.4276a10.9255,10.9255,0,0,0,10.5222,10.7966c5.5586.23,10.7979-4.8729,10.8261-10.5439C312.5318,239.3358,307.4183,234.2811,301.7,234.1969Zm80.3168,320.6124c-5.6606.083-10.9766,5.3572-10.76,10.6755.2207,5.4177,5.81,10.592,11.1791,10.3482a10.7075,10.7075,0,0,0,10.2773-10.5843A10.5239,10.5239,0,0,0,382.0165,554.8093Zm-29.3578-291.22a10.731,10.731,0,0,0-10.5818-10.5785c-5.5487-.0146-10.6737,4.78-10.7913,10.0966a10.912,10.912,0,0,0,10.8122,10.9367C347.5083,274.0313,352.6111,268.98,352.6587,263.589ZM181.0645,594.3176c5.6765.0968,10.91-4.8193,10.9828-10.3168.0737-5.56-5.1065-10.8268-10.6177-10.7954-5.6413.0321-10.8192,5.1278-10.8159,10.6444C170.6168,589.269,175.5636,594.2238,181.0645,594.3176ZM342.406,573.416c-5.9242-.1556-11.0588,4.5058-11.12,10.0956a10.6922,10.6922,0,0,0,21.3806.3935A10.5323,10.5323,0,0,0,342.406,573.416ZM192.1311,303.2235c-.057-5.27-5.4417-10.3393-11.0128-10.3683-5.3148-.0277-10.5212,5.4152-10.4391,10.9133.0811,5.43,5.4555,10.5219,10.935,10.3605C187.0766,313.9682,192.19,308.6659,192.1311,303.2235Zm69.65,69.884a10.6361,10.6361,0,0,0-10.7126,10.502,10.6216,10.6216,0,0,0,21.2321.2377A10.7179,10.7179,0,0,0,261.7813,373.1075Zm361.15-37.7637a10.7288,10.7288,0,0,0,10.9751-10.7351c-.08-4.948-5.2951-10.0237-10.4595-10.18a10.8445,10.8445,0,0,0-11.0172,10.2089A10.556,10.556,0,0,0,622.9309,335.3438ZM612.4192,204.9572c-.0943,5.2445,5.13,10.4085,10.5238,10.4028,5.5988-.0059,10.8618-5.01,10.9621-10.4233.0972-5.2437-4.9712-10.45-10.3812-10.6628A11.0951,11.0951,0,0,0,612.4192,204.9572ZM473.1771,365.09c.0735-5.4973-5.0848-10.6366-10.731-10.6915-5.361-.0521-10.6593,5.2626-10.7572,10.79-.0921,5.1973,5.0776,10.2486,10.5589,10.3172A10.9425,10.9425,0,0,0,473.1771,365.09ZM181.3989,252.9968c-5.5663.0116-10.9013,5.2491-10.7748,10.578A11.0976,11.0976,0,0,0,181.15,274.0281c5.6332.0746,11.1723-5.35,11.03-10.802C192.0432,257.9964,186.7621,252.9857,181.3989,252.9968ZM513.3567,623.8992c.1083-5.5642-4.8218-10.37-10.7305-10.46-5.5786-.0847-10.7783,4.9508-10.774,10.434.0042,5.3874,5.2344,10.5387,10.7539,10.5914A10.9936,10.9936,0,0,0,513.3567,623.8992Zm150.074-430.0954c5.7422-.0638,10.8753-5.181,10.6618-10.6288-.2068-5.2738-5.6119-10.2682-11.2485-10.3937-5.073-.113-10.2374,5.311-10.2018,10.7143A10.4527,10.4527,0,0,0,663.4307,193.8038Zm-.4073,320.4245c5.7316.0686,10.89-4.7849,11.0068-10.3569.11-5.2272-5.301-10.6335-10.788-10.7788-5.4315-.1439-10.568,5.06-10.5994,10.7377A10.6268,10.6268,0,0,0,663.0234,514.2283ZM352.65,464.0276c.1543-6.4166-5.4584-10.8047-10.8432-10.9825-5.1525-.17-10.4561,5.29-10.52,10.4962-.0687,5.628,4.8175,10.5116,10.7071,10.7014A10.8016,10.8016,0,0,0,352.65,464.0276Zm80.3038-200.6884a10.6291,10.6291,0,0,0-10.4323-10.3225c-5.8745-.0237-10.9425,4.7667-10.9771,10.3757-.0345,5.601,5.42,10.7774,11.2049,10.6331A10.8962,10.8962,0,0,0,432.9534,263.3392Zm-291.6,112.1634a10.9224,10.9224,0,0,0,10.6152-10.7481c-.1176-5.1147-5.5867-10.3884-10.74-10.3566-5.6984.0351-10.8942,5.3676-10.7477,11.03C130.6182,370.7621,135.7834,375.548,141.3531,375.5026ZM473.1389,605.7083a11.2785,11.2785,0,0,0-10.6253-11.1268c-5.0235-.2181-10.7951,5.4432-10.8384,10.6314-.0447,5.36,5.3118,10.6314,10.8094,10.638C468.0128,615.8575,473.0735,611.04,473.1389,605.7083ZM342.1512,554.3321c5.7106-.1021,10.672-5.1928,10.4812-10.7545A11.1669,11.1669,0,0,0,341.9483,533.25c-5.4959.0206-10.6738,4.9791-10.66,10.2081A10.8473,10.8473,0,0,0,342.1512,554.3321Zm39.9621-199.8485c-5.4488.0267-10.8666,5.3392-10.8468,10.6361.0185,4.9859,5.507,10.342,10.6783,10.4209,5.5468.0845,10.9777-5.1245,10.9583-10.5106C392.8832,359.5291,387.6933,354.4563,382.1133,354.4836ZM553.5445,245.2982c.1385-5.6561-5.5037-11.2255-11.2572-11.1119-4.8889.0964-10.0253,5.2443-10.2692,10.2923-.2583,5.3441,4.809,10.73,10.3,10.9464C547.8013,255.6415,553.4153,250.5776,553.5445,245.2982ZM272.307,423.6509c-.0771-5.5384-5.3425-10.72-10.7381-10.5682a10.5358,10.5358,0,1,0,.1866,21.07A10.5483,10.5483,0,0,0,272.307,423.6509Zm190.5645,131.14a10.77,10.77,0,0,0-11.1168,10.3911c-.1737,5.1626,4.7408,10.2606,10.2278,10.61,5.3161.3382,10.8081-4.4434,11.1277-9.6883A10.7908,10.7908,0,0,0,462.8715,554.7907ZM100.7534,274.0214a11.1869,11.1869,0,0,0,11.0341-10.28c.2424-5.5184-4.9565-10.6444-10.9225-10.7693-5.2476-.11-10.4344,4.8815-10.5948,10.1958C90.1086,268.5248,95.3105,273.9105,100.7534,274.0214ZM181.3268,434.19a10.5556,10.5556,0,0,0,.2925-21.1091c-5.5782-.11-10.9423,4.9928-10.9862,10.45C170.5885,429.087,175.5944,434.0766,181.3268,434.19ZM473.1184,405.45a10.6781,10.6781,0,0,0-10.7586-10.818,10.9175,10.9175,0,0,0-10.6959,10.4352c-.0608,5.3567,5.2,10.4849,10.8054,10.5339C467.8376,415.6475,473.0689,410.6609,473.1184,405.45ZM141.3341,295.3737A10.75,10.75,0,0,0,151.93,284.7961c-.0014-5.3306-5.3049-10.4845-10.8265-10.521-5.3552-.0354-10.7181,5.3945-10.6171,10.75A10.8932,10.8932,0,0,0,141.3341,295.3737ZM312.504,285.02c.0277-5.5425-5.0528-10.6518-10.6758-10.7363-5.2649-.0791-10.65,5.1363-10.6956,10.358a10.816,10.816,0,0,0,10.5052,10.7755C307.3188,295.4981,312.4762,290.5632,312.504,285.02Zm-50.7216,309.341a10.671,10.671,0,0,0,10.521-10.6628,10.8547,10.8547,0,0,0-10.5073-10.2913,10.48,10.48,0,1,0-.0137,20.9541ZM542.7687,295.3736a10.91,10.91,0,0,0,10.8086-10.5369c.0492-5.2338-5.467-10.5521-10.9549-10.5618-5.1386-.0091-10.6193,5.4091-10.5986,10.4777A10.959,10.959,0,0,0,542.7687,295.3736Zm-430.9873,7.957c.0119-5.2177-5.6283-10.6141-10.9424-10.4695-5.4551.1485-10.5968,5.437-10.5458,10.8472.0513,5.4463,5.2264,10.3631,10.8852,10.3417A11.1012,11.1012,0,0,0,111.7814,303.3306ZM652.6369,583.7423a10.621,10.621,0,0,0,21.2411.1463,10.822,10.822,0,0,0-10.3357-10.4641C657.7366,573.3272,652.6367,578.1524,652.6369,583.7423Zm-441.801,21.3036a11.0586,11.0586,0,0,0,10.9226,10.8858c5.3459-.0564,10.3077-5.1171,10.38-10.5865.072-5.4739-5.187-10.7318-10.6941-10.692C216.1806,594.6913,210.9229,599.8422,210.8359,605.0459ZM583.1621,354.0565c5.6924-.1113,10.7567-5.3264,10.5323-10.8455-.2137-5.2552-5.7-10.2176-11.3021-10.2228-5.2632-.0049-10.338,5.581-10.1424,11.1637C572.4356,349.4511,577.6288,354.1648,583.1621,354.0565Zm-.7684-61.1989c-5.1365.0722-10.1679,5.4558-10.149,10.8594.0189,5.4322,5.43,10.5735,10.9581,10.412,5.48-.16,10.7216-5.6215,10.5259-10.9673C593.5361,297.9,587.904,292.78,582.3937,292.8576ZM462.4365,314.4282a10.9975,10.9975,0,0,0-10.7481,10.6483c-.0152,5.3606,4.9688,10.1987,10.58,10.2706a10.6162,10.6162,0,0,0,10.9043-10.33C473.2513,319.52,468.1124,314.4519,462.4365,314.4282Zm-40.2237,39.63c5.7771-.0295,10.862-5.01,10.7388-10.5183A11.1886,11.1886,0,0,0,422.14,332.951c-5.4966.0385-10.5776,5.2294-10.6111,10.8406C411.4976,349.0693,416.7181,354.0858,422.2128,354.0577ZM582.9279,474.35c5.4355-.0011,10.6948-5.1686,10.8314-10.6423.1312-5.26-5.6279-10.7174-11.1772-10.591-5.3225.1213-10.24,5.129-10.34,10.5287C572.1443,468.9912,577.4949,474.3514,582.9279,474.35ZM462.5438,495.4734a10.5929,10.5929,0,0,0,10.6376-10.493c-.0074-5.2076-5.2105-10.36-10.5141-10.412-5.54-.0542-10.891,5.0825-10.98,10.54C451.5978,490.6349,456.6667,495.4743,462.5438,495.4734ZM582.903,613.4178c-5.78.0567-10.81,5.0809-10.658,10.6469a10.94,10.94,0,0,0,11.0089,10.3879c5.4485-.0919,10.5906-5.4462,10.4849-10.9176C593.64,618.42,588.2263,613.3655,582.903,613.4178ZM432.9517,503.8353c-.0564-5.6487-5.1654-10.7538-10.7174-10.7093-5.4892.0439-10.6079,5.1785-10.6957,10.7287-.0867,5.4778,5.1658,10.4309,11.0021,10.3748A10.5879,10.5879,0,0,0,432.9517,503.8353Zm-211.33-349.5362a10.4646,10.4646,0,1,0-.02,20.9209,11.0983,11.0983,0,0,0,10.7395-10.66C232.3185,159.3973,227.0455,154.35,221.6221,154.2991ZM181.6853,453.2805a10.6748,10.6748,0,0,0-11.01,10.0525c-.3141,5.373,4.6718,10.6124,10.3852,10.9132,5.3215.28,10.77-4.7371,11.1357-10.2548C192.5284,458.9769,187.214,453.5613,181.6853,453.2805Zm29.1663-248.374A11.0539,11.0539,0,0,0,221.307,215.36c5.7591.0437,11.1981-5.2562,11.0327-10.75-.1619-5.3787-5.51-10.25-11.2268-10.2273C215.7175,194.4042,210.8218,199.4253,210.8516,204.9065Zm10.8375,170.6c5.5738-.0656,10.7978-5.3284,10.6515-10.7307-.1425-5.2646-5.4535-10.434-10.6617-10.3774a11.1847,11.1847,0,0,0-10.8083,11.0549C210.98,370.7777,216.1386,375.5714,221.6891,375.5062Zm-80.3236,58.939c-5.412-.0536-10.8466,5.1673-10.9335,10.5034-.0893,5.478,4.9645,10.6008,10.5457,10.69,5.5886.0891,10.9021-4.9064,10.97-10.3137C152.0159,439.9389,146.7237,434.4982,141.3655,434.4452ZM623.0706,535.68c5.627-.0225,10.7979-5.0615,10.8367-10.56.0379-5.3868-5.2787-10.4126-10.9337-10.3357a10.7093,10.7093,0,0,0-10.5445,10.6953C612.4918,530.846,617.5573,535.7017,623.0706,535.68ZM301.4151,375.5044a10.9843,10.9843,0,0,0,11.1223-10.0537c.2447-5.5418-4.96-10.883-10.7309-11.013-5.2429-.118-10.267,4.7171-10.5864,10.1881A10.5531,10.5531,0,0,0,301.4151,375.5044Zm-200.33,18.5222c5.542-.0418,10.7634-5,10.69-10.1523A11.2623,11.2623,0,0,0,100.25,373.14c-5.2963.159-10.1676,5.4663-9.9866,10.88C90.4442,389.4244,95.4675,394.0691,101.0849,394.0266Zm240.7539-39.9795c5.8662-.0729,10.9629-4.9156,10.9048-10.361-.06-5.5738-5.6766-10.884-11.2785-10.6624a11.09,11.09,0,0,0-10.1775,10.7624A10.8793,10.8793,0,0,0,341.8388,354.0471Zm80.5651,39.9864c5.7339-.0886,10.5748-4.7906,10.5317-10.23A11.0223,11.0223,0,0,0,421.41,373.1348c-4.9458.1908-10.0977,5.68-9.9462,10.5977A10.9048,10.9048,0,0,0,422.4039,394.0335Zm240.7993-.006c5.7338.0381,10.8456-4.8661,10.8849-10.4427.0362-5.1515-5.4729-10.3993-11-10.4782-5.4348-.0777-10.3774,4.829-10.4526,10.3766A10.4774,10.4774,0,0,0,663.2032,394.0275ZM341.747,292.8857c-4.9629-.1809-10.3955,5.2888-10.46,10.5315-.0683,5.55,4.8995,10.52,10.6989,10.7022,5.3194.1674,10.5256-4.7918,10.747-10.237C352.9491,298.56,347.489,293.0949,341.747,292.8857ZM612.4322,405.0022A10.9039,10.9039,0,0,0,623.12,415.67c5.2708.0351,10.627-5.0842,10.7546-10.2787.1352-5.5058-5.26-10.824-11.0964-10.9376C617.5194,394.351,612.4692,399.5,612.4322,405.0022Zm40.2106,58.6446a10.6974,10.6974,0,0,0,10.65,10.6117c5.51.0088,10.7119-5.1726,10.7506-10.7084.0362-5.1762-5.5115-10.4367-11.1-10.5253C657.8825,452.9445,652.69,458.2984,652.6428,463.6468ZM392.7206,444.91c.2745-6.69-6.0947-9.8215-11.3941-10.2855-4.5652-.4-9.7914,5.4293-9.848,10.1228a11.0258,11.0258,0,0,0,10.8324,11A10.8124,10.8124,0,0,0,392.7206,444.91Zm-91.1019-250.679a11.07,11.07,0,0,0-10.4759,10.87c.1088,5.5272,5.4468,10.4715,11.038,10.224,5.4834-.2428,10.52-5.3877,10.3616-10.5845C312.3715,199.1313,307.1478,194.1059,301.6187,194.2314Zm-160.574,21.14c5.4753.1365,10.8513-4.98,10.95-10.4216.0929-5.117-5.5482-10.5961-10.98-10.6645-5.5332-.07-10.4492,4.9161-10.5608,10.71C130.3537,210.2145,135.4756,215.2325,141.0447,215.3713Zm120.0345,77.5144c-5.1433.0277-10.074,5.3864-10.0014,10.87A10.7239,10.7239,0,0,0,261.57,314.13c5.416.1247,10.7788-5.1043,10.8945-10.6228C272.5761,298.2023,266.8435,292.8547,261.0792,292.8857ZM582.5332,132.71c-5.35.0906-10.46,5.5862-10.2869,11.0628.1735,5.4845,5.4512,10.3255,11.0918,10.1739,5.4311-.1459,10.5185-5.5519,10.3593-11.008C593.5433,137.6547,588.0444,132.6167,582.5332,132.71Zm-240.536,61.1627c5.78-.0512,10.7544-5.0075,10.6641-10.6261-.0884-5.4992-5.7571-10.6362-11.4986-10.42-5.2008.1958-10.0363,5.566-9.8759,10.9679A10.8112,10.8112,0,0,0,341.9972,193.8726Zm-241.5383.0089c5.6383.3307,11.129-4.497,11.32-9.9531.1979-5.6548-4.9229-10.9252-10.7857-11.1007-5.1494-.1542-10.54,4.9954-10.7463,10.2663C90.04,188.3581,94.9642,193.5593,100.4589,193.8815ZM261.3743,514.2234a11.0889,11.0889,0,0,0,11.0823-10.2918c.1709-5.18-5.23-10.6448-10.7108-10.8379-5.3712-.1891-10.5937,5.0282-10.6688,10.6581A10.6059,10.6059,0,0,0,261.3743,514.2234Zm131.3425,91.1555c-.3182-7.2091-4.9935-9.8241-11.1694-10.5824-4.8114-.5907-10.425,5.8169-10.2163,10.7093.2292,5.371,5.3546,10.3331,10.6861,10.3458C387.7748,615.8651,392.7935,610.9529,392.7168,605.3789ZM210.8411,284.9512a10.7039,10.7039,0,0,0,10.7256,10.4612c5.8877-.1652,10.7427-5.0713,10.5836-10.6954-.1563-5.5308-5.2465-10.3284-11.0513-10.4161C216.0313,274.2243,210.7992,279.6565,210.8411,284.9512ZM582.7686,514.227A10.9824,10.9824,0,0,0,593.69,503.7908c.0951-5.3664-5.7427-10.8606-11.3385-10.6712-5.3117.18-10.1428,5.39-10.1084,10.9009A10.598,10.598,0,0,0,582.7686,514.227Zm-80.4539-381.54c-5.3778.1072-10.6137,5.6372-10.4471,11.0339.1593,5.1644,5.4734,10.1793,10.8018,10.1938,5.45.0148,10.697-5.2723,10.6777-10.76C513.3285,137.88,507.7417,132.579,502.3147,132.6872ZM181.6159,613.3932a11.0159,11.0159,0,0,0-10.9769,10.3724c-.1639,5.506,4.8662,10.5331,10.7184,10.712,5.2808.1613,10.8816-5.3534,10.8306-10.6642C192.1386,618.6712,186.89,613.4981,181.6159,613.3932ZM542.9,135.25c5.6291-.0787,10.7644-5.2242,10.68-10.7016-.0816-5.3213-5.6283-10.5333-11.0686-10.4007-5.4307.1324-10.5136,5.2159-10.4871,10.4884C532.0522,130.1584,537.3487,135.3275,542.9,135.25Zm39.8519-42.4352c-5.5457.0608-10.4982,4.942-10.5108,10.3593A10.92,10.92,0,0,0,583.38,113.8349c5.28-.19,10.2741-5.3178,10.3766-10.6539C593.8568,97.978,588.3106,92.7538,582.7518,92.8147ZM251.07,103.5049a10.91,10.91,0,0,0,10.9259,10.3662c5.2211-.1008,10.432-5.4091,10.4268-10.6218-.0051-5.2258-5.4277-10.5152-10.93-10.6614C256.1891,92.447,251.0009,97.881,251.07,103.5049ZM101.1285,434.1863a10.942,10.942,0,0,0,10.6181-10.6733c-.0538-5.1846-5.5051-10.39-10.9168-10.4249-5.4134-.0347-10.6149,5.2534-10.5273,10.7025A10.9347,10.9347,0,0,0,101.1285,434.1863ZM473.1323,245.2178c-.018-5.65-5.2347-10.9105-10.9219-11.0142-4.7837-.0872-10.423,5.4958-10.5333,10.4282-.1224,5.4726,5.4046,10.9451,10.9459,10.8381C468.1436,255.3632,473.1491,250.48,473.1323,245.2178Zm40.22,58.0878c-.0875-5.2965-5.6741-10.6122-10.9773-10.4451a11.4013,11.4013,0,0,0-10.51,10.8894c.0234,5.401,5.3519,10.4117,10.97,10.3159C508.3908,313.971,513.4433,308.8015,513.3524,303.3056ZM210.8378,245.022c.068,5.49,5.4179,10.6123,10.8926,10.4287a10.9561,10.9561,0,0,0,10.3574-10.8217c-.0972-5.4553-5.23-10.4469-10.7591-10.4642C215.9309,234.1479,210.7693,239.49,210.8378,245.022ZM502.3962,434.19A11.0579,11.0579,0,0,0,513.3574,423.75c.1559-5.2336-5.1559-10.4732-10.8077-10.6609-4.9935-.1657-10.6343,5.2732-10.705,10.3219A10.9924,10.9924,0,0,0,502.3962,434.19ZM101.0676,354.0581a10.9068,10.9068,0,0,0,10.7139-10.5947c-.0509-5.382-5.447-10.5687-10.9353-10.5108-5.4329.0573-10.6237,5.4007-10.5631,10.8736C90.3412,349.0676,95.6238,354.08,101.0676,354.0581ZM422.24,554.1565c5.6986.0669,10.633-4.5588,10.6774-10.0094a10.768,10.768,0,0,0-10.3079-10.9c-5.406-.1224-11.1328,5.2366-11.1314,10.4167A10.8579,10.8579,0,0,0,422.24,554.1565ZM221.382,455.5459a10.7846,10.7846,0,0,0,10.8167-10.4724c.0207-5.2552-5.2415-10.3893-10.8413-10.5776-5.2475-.1764-10.6163,5.3492-10.52,10.8277A10.7129,10.7129,0,0,0,221.382,455.5459Zm332.1071-10.7171c-.0625-5.18-5.6132-10.3409-11.1012-10.322-5.1472.0177-10.2978,5.2811-10.3335,10.56A10.9454,10.9454,0,0,0,542.6457,455.65,11.0763,11.0763,0,0,0,553.4891,444.8288Zm-262.3518-.0014a10.6893,10.6893,0,0,0,21.3668.5251c.1479-5.5833-4.9543-10.74-10.8247-10.94C296.7862,434.2462,291.1973,439.7675,291.1373,444.8274ZM623.0037,455.544a10.6863,10.6863,0,0,0,10.7477-10.51c-.0144-5.3-5.2545-10.3821-10.8639-10.5363-5.0587-.1391-10.4754,5.27-10.4827,10.4673A10.6974,10.6974,0,0,0,623.0037,455.544ZM341.4464,132.69c-4.9833.0348-10.2766,5.7107-10.1584,10.8928.1231,5.4015,5.1052,10.2517,10.6247,10.3434,5.4587.0908,10.86-5.1831,10.83-10.5752C352.7132,137.9259,347.1233,132.6506,341.4464,132.69Zm40.465,42.5008c5.8286.067,11.0242-4.65,10.9267-10.2525-.1188-6.8233-4.779-9.728-11.1985-10.5522-4.9041-.63-10.0116,4.8974-10.1511,10.1185A10.4266,10.4266,0,0,0,381.9114,175.1909Zm171.6374,29.9309c.0888-5.2549-5.2563-10.6264-10.7872-10.84-5.3046-.2052-10.4853,4.8869-10.7364,10.5527-.2327,5.2525,5.2382,10.5721,10.8371,10.5374C548.2879,215.3379,553.46,210.3771,553.5488,205.1218Zm-452.59,28.7809c5.4858.08,10.63-4.6968,10.8048-10.0317.1815-5.5479-4.96-10.6549-10.9594-10.8853-5.0795-.1951-10.4646,5.0723-10.5577,10.327C90.15,228.764,95.2645,233.82,100.959,233.9027ZM392.7152,245.115a11.2926,11.2926,0,0,0-10.9895-10.9117c-4.7808-.03-10.18,5.3519-10.3353,10.3025-.1783,5.6883,4.8681,10.7685,10.8619,10.9347C387.5186,255.5865,392.702,250.4712,392.7152,245.115Zm-10.8825,50.2592a10.3723,10.3723,0,0,0,10.8875-10.587c.0229-5.3092-5.24-10.4492-10.7292-10.4787-5.2387-.0282-10.4454,5.0564-10.5106,10.2639A10.7007,10.7007,0,0,0,381.8327,295.3742ZM583.09,554.1591c5.6091-.0732,10.8271-4.9692,10.542-10.2089-.3674-6.7515-4.9819-9.9147-11.1983-10.5758-5.1232-.5449-10.2,5.1407-10.1983,10.5054A10.55,10.55,0,0,0,583.09,554.1591ZM432.9531,303.4755c-.0141-5.5037-5.0911-10.4329-10.9055-10.5878-5.03-.1341-10.6833,5.7535-10.5314,10.9675.1524,5.2337,5.3659,10.1546,10.8435,10.235A10.8245,10.8245,0,0,0,432.9531,303.4755ZM622.82,495.6452a11.0488,11.0488,0,0,0,11.086-10.7323c.059-5.084-5.9618-10.3928-11.6838-10.3023-4.7235.0748-9.6785,5.2254-9.793,10.18A10.87,10.87,0,0,0,622.82,495.6452ZM221.4025,335.3437a10.7316,10.7316,0,0,0,10.9378-10.757c-.0943-4.7978-5.7876-10.0686-10.967-10.1532-5.5521-.0907-10.54,4.9749-10.51,10.6741A10.6008,10.6008,0,0,0,221.4025,335.3437Zm40.4768,18.7136a11.0486,11.0486,0,0,0,10.5918-10.3352c.1043-5.18-5.7361-10.7494-11.2472-10.7248-5.17.0232-10.2166,5.3478-10.1471,10.7066A10.57,10.57,0,0,0,261.8793,354.0573Zm361.2757,21.45c5.5605-.0121,10.7664-5.1394,10.7523-10.59-.0134-5.1523-5.6713-10.5316-11.0453-10.5013-5.4321.0307-10.5251,5.3916-10.43,10.9788C612.5224,370.713,617.6194,375.52,623.155,375.5077ZM181.434,394.027a10.7475,10.7475,0,0,0,10.6687-10.1577c.1095-5.5636-5.2644-10.76-11.1163-10.75-5.3212.01-10.278,4.9958-10.3715,10.4332C170.52,389.0921,175.6017,394.0122,181.434,394.027ZM473.17,644.9415c-.1209-6.3459-5.7837-9.5967-11.2337-10.0648-5.137-.4414-10.3961,5.48-10.2456,10.6653a10.7446,10.7446,0,0,0,21.4793-.6005Zm69.039,10.8516a11.0681,11.0681,0,0,0,11.34-9.9224c.4517-4.9485-5.0382-10.8485-10.3447-11.1171-5.2048-.2636-10.7186,4.5741-11.1785,9.8079C531.5561,649.9028,536.5681,655.4307,542.2088,655.7931ZM181.0872,193.84c5.8078.0813,11.0858-5.02,11.0427-10.6725-.0382-5.0133-5.8155-10.35-11.2228-10.3667-5.1131-.0159-10.2534,5.3263-10.2363,10.6383A10.8987,10.8987,0,0,0,181.0872,193.84Zm69.99,470.0578a11.0441,11.0441,0,0,0,10.6679,10.6982c5.4265-.0175,10.801-5.4137,10.7535-10.797-.045-5.0928-5.8209-10.5124-11.1464-10.4586C256.0387,653.3942,251.1384,658.4292,251.077,663.8979Zm331.76-269.87a10.7564,10.7564,0,0,0,10.8276-9.9926c.2311-5.4829-5.0522-10.776-10.8981-10.9183-5.2329-.1274-10.4165,4.89-10.5736,10.2348C572.0305,388.88,577.0769,393.9412,582.8371,394.0275ZM392.7152,405.2417c.023-5.7732-4.9724-10.6525-11.064-10.8069-4.7192-.12-10.1823,5.3684-10.2822,10.3291-.11,5.4471,4.9487,10.6771,10.4775,10.8329A10.7579,10.7579,0,0,0,392.7152,405.2417ZM382.2043,535.69a11.053,11.053,0,0,0,10.6672-10.2534c.1569-5.4021-5.0345-10.674-10.5667-10.73a10.7711,10.7711,0,0,0-10.8228,10.4058C371.4027,530.7208,376.4027,535.6535,382.2043,535.69ZM652.6378,423.423a10.658,10.658,0,0,0,21.313.3356c.1409-5.1714-5.3114-10.5183-10.8513-10.6417C657.7314,412.9974,652.675,417.9786,652.6378,423.423ZM542.6,575.8186c5.2117.1,10.718-4.9286,10.9175-9.971.22-5.5666-5.1214-11.0338-11.0264-11.2858-4.93-.21-10.4646,5.5627-10.4746,10.9261C532.0071,570.5007,537.3516,575.7176,542.6,575.8186ZM663.444,354.0571a11.0469,11.0469,0,0,0,10.5927-10.3346c.1046-5.177-5.72-10.7383-11.234-10.7265-5.1963.0111-10.1217,5.201-10.16,10.7053C652.6037,349.3427,657.55,354.0847,663.444,354.0571Zm-10.8013-50.5363a11.004,11.004,0,0,0,10.6912,10.6153c5.4319-.0344,10.7625-5.4056,10.7279-10.81-.0327-5.09-5.4957-10.1979-11.1651-10.44C657.8876,292.6722,652.6737,298.08,652.6427,303.5208Zm-219.69,320.1663c-.0644-5.446-5.263-10.2727-11.0642-10.2727-5.3146,0-10.382,5.1555-10.3572,10.5374.0247,5.376,5.41,10.5466,10.8964,10.4616A10.785,10.785,0,0,0,432.9531,623.6871ZM312.5037,485.2517c-.05-5.5464-5.4327-10.6429-11.2464-10.6494-5.1477-.0057-10.2259,5.4078-10.0809,10.7467a10.72,10.72,0,0,0,10.4808,10.2942C307.3737,495.69,312.5536,490.7274,312.5037,485.2517Zm270.44-51.0623c5.39.0775,10.72-5.1268,10.8239-10.57.0965-5.0341-5.574-10.4241-11.0666-10.5189-5.1994-.09-10.553,5.2464-10.5062,10.4719A11.1043,11.1043,0,0,0,582.9435,434.1894ZM553.516,405.74c.2926-5.8289-4.351-10.6548-10.6408-11.0584-5.2667-.3381-10.5844,4.556-10.8661,10-.2777,5.3694,4.739,10.6362,10.4661,10.9875C547.5384,415.98,553.26,410.8337,553.516,405.74ZM572.241,263.3a10.9535,10.9535,0,0,0,10.6034,10.7157c5.482-.0147,10.7618-5.0628,10.9287-10.4492.1549-5-5.5358-10.478-10.9788-10.5686C577.5426,252.9107,572.2564,258.0711,572.241,263.3ZM502.81,493.1173c-5.617-.037-11.052,5.4105-10.9516,10.9769.0916,5.0722,5.5835,10.2614,10.8534,10.2551,5.44-.0065,10.6863-5.3143,10.6355-10.7607C513.2976,498.2922,508.1252,493.1523,502.81,493.1173Zm-401.3814.0016c-5.67-.1218-11.066,5.0941-11.1474,10.7756-.0714,4.9866,5.5174,10.4682,10.6633,10.4587,5.5449-.01,10.7592-5.087,10.8368-10.551C111.8544,498.6445,106.6075,493.23,101.4284,493.1189ZM352.6649,223.3333c-.059-5.2454-5.5-10.3946-11-10.4105-5.4036-.0156-10.4963,5.096-10.3779,10.4165a10.96,10.96,0,0,0,10.7293,10.5531C347.7532,233.8223,352.7273,228.89,352.6649,223.3333Zm310.6806,10.566c5.7808-.0717,10.756-4.9668,10.49-10.6359-.3152-6.72-4.6485-9.5472-10.9545-10.1685-5.4275-.5348-10.2343,4.7792-10.2468,10.4072A10.5429,10.5429,0,0,0,663.3455,233.8993ZM341.3828,514.2006c5.6066.3667,11.04-4.38,11.3391-9.9058.2912-5.3738-4.97-10.884-10.6911-11.1976-4.8135-.2639-10.4774,5.2218-10.7285,10.3908C331.0461,508.7592,335.8244,513.837,341.3828,514.2006ZM272.3055,223.2562c-.4415-6.6787-4.77-9.5807-11.0024-10.1635-5.4143-.5062-10.2663,4.85-10.2346,10.4043a10.4908,10.4908,0,0,0,10.7069,10.3791A10.6541,10.6541,0,0,0,272.3055,223.2562ZM542.8176,375.504a10.9466,10.9466,0,0,0,10.7289-10.61c-.0263-5.1224-5.733-10.4852-11.1481-10.4762-5.262.0088-10.44,5.4807-10.3589,10.9477C532.1173,370.6376,537.277,375.491,542.8176,375.504ZM352.6527,624.0458c.0353-5.6891-5.1385-10.6044-11.1337-10.5773-5.1478.0232-10.1005,4.9225-10.2336,10.1234a10.6865,10.6865,0,0,0,21.3673.4539ZM462.23,194.2827c-5.3171-.0662-10.5217,5.31-10.5394,10.8878-.0163,5.12,5.2565,10.1378,10.72,10.2023,5.4.0638,10.6944-4.9629,10.7568-10.2123C473.2365,199.4042,468.161,194.3564,462.23,194.2827Zm.1017,261.4208c5.5.1222,10.6742-4.9335,10.83-10.5812.1522-5.5235-5.3117-10.6817-11.2463-10.6173-4.9808.054-10.1075,5.2292-10.2213,10.3178C451.5733,450.2276,456.807,455.5808,462.332,455.7035Zm-321.07-40.0442c5.1429.0587,10.5863-5.1623,10.7254-10.2872.1517-5.5929-5.1441-10.7662-11.08-10.8238-5.2484-.0509-10.4022,5.12-10.4644,10.4985C130.3806,410.4589,135.6164,415.5948,141.2622,415.6593Zm291.63-231.4767c.3537-5.8119-4.67-11.118-10.7509-11.3554-5.1555-.2013-10.1573,4.72-10.5384,10.3689-.3518,5.2135,4.5141,10.24,10.1931,10.5292C427.4786,194.0148,432.56,189.6447,432.8925,184.1826ZM261.5359,153.7443a10.9285,10.9285,0,0,0,10.9349-10.3955c.08-5.0956-5.45-10.4764-10.9162-10.6206-5.3984-.1425-10.5413,5.14-10.4772,10.7614A10.526,10.526,0,0,0,261.5359,153.7443Zm171.417-50.7077c-.082-5.36-5.4944-10.3938-11.0972-10.3215-5.2337.0675-10.3685,5.3606-10.3278,10.6463.0414,5.385,5.446,10.5486,10.93,10.4429A10.7836,10.7836,0,0,0,432.9529,103.0366Zm-240.7485.3678c.1229-4.9738-5.4469-10.4609-10.9317-10.7692-4.8956-.2753-10.3851,5.084-10.6272,10.3754-.2513,5.4915,4.6463,10.5426,10.5388,10.869C186.3783,114.1672,192.0722,108.7548,192.2044,103.4044ZM432.9537,423.6175c.0684-5.2888-5.1731-10.3962-10.8128-10.5361-4.9383-.1225-10.5552,5.4137-10.6011,10.449-.05,5.495,5.1111,10.6294,10.7054,10.6495A10.784,10.784,0,0,0,432.9537,423.6175Zm-131.265-29.1126c-4.9428-.1554-10.3967,5.0248-10.5348,10.0061a11.0517,11.0517,0,0,0,10.2639,11.0822c5.5283.3069,10.887-4.6853,11.0857-10.3273C312.6869,400.059,307.2817,394.6808,301.6887,394.5049Zm40.4058-.4723a10.4313,10.4313,0,0,0,10.5565-10.495c-.095-5.3765-5.9156-10.6445-11.5086-10.4159-4.7507.1941-9.8385,5.4038-9.8563,10.0923A10.7321,10.7321,0,0,0,342.0945,394.0326ZM221.6136,535.6719c5.5823-.08,10.7614-5.2156,10.7278-10.6379-.03-4.893-5.8548-10.2836-11.1587-10.3276-5.454-.0453-10.4763,5.2958-10.3057,10.96A10.6584,10.6584,0,0,0,221.6136,535.6719ZM392.72,204.8884a11.1526,11.1526,0,0,0-10.6837-10.6453c-5.1692-.0836-10.7885,5.5286-10.7685,10.7549.02,5.1481,5.7612,10.5083,11.0984,10.3614A10.7474,10.7474,0,0,0,392.72,204.8884Zm259.9228,58.4965a10.9548,10.9548,0,0,0,10.6741,10.6324c5.62-.0165,10.7133-5.1031,10.668-10.654-.0437-5.3534-5.7911-10.5571-11.4643-10.38A10.69,10.69,0,0,0,652.6428,263.3849Zm-401.57-.1264a10.6644,10.6644,0,0,0,21.3271.2633c.063-5.3973-5.4589-10.5234-11.3094-10.4985A10.4563,10.4563,0,0,0,251.0726,263.2585Zm361.3306-18.38c-.0089,5.53,5.32,10.7215,10.8508,10.572,5.4814-.1482,10.525-5.0994,10.5759-10.3823.052-5.4057-5.43-10.7662-11.12-10.8738C617.723,234.1,612.4116,239.6059,612.4032,244.8787ZM502.62,354.057c5.7407-.051,10.8938-5.117,10.7231-10.5417-.1806-5.7374-5.3084-10.4862-11.3744-10.5335-4.7993-.0374-10.102,5.66-10.1165,10.8694C491.8377,348.9918,497.2323,354.1048,502.62,354.057Zm10.7273,309.74c0-5.1059-5.5674-10.3779-11.0791-10.4911-4.9183-.1011-10.3093,5.3918-10.43,10.6272-.1209,5.2376,5.3307,10.5711,10.8254,10.591C508.1,674.5433,513.347,669.2754,513.347,663.7966ZM312.5041,325.3105c.0641-5.7671-5.3512-10.9148-11.3841-10.8217-4.9989.0771-10.0127,5.315-10.0009,10.4476a10.8061,10.8061,0,0,0,10.7589,10.4143C307.5468,335.3443,312.444,330.7172,312.5041,325.3105ZM291.25,564.7821a10.7585,10.7585,0,0,0,10.228,11.0164c5.3744.329,10.8647-4.8589,11.025-10.418.1523-5.2821-5.1082-10.3817-10.9074-10.5737C296.4813,554.6375,291.4875,559.4525,291.25,564.7821ZM582.7451,193.8436c5.6519.036,10.9948-5.0257,10.9266-10.3515-.0711-5.5446-5.5271-10.7042-11.29-10.6768-5.15.0244-10.0272,5.175-10.14,10.7076C572.1347,188.7422,577.2913,193.8088,582.7451,193.8436Z"/></svg>