<svg id="Layer_1" data-name="Layer 1" xmlns="http://www.w3.org/2000/svg" width="514.1132" height="916.9925" viewBox="0 0 514.1132 916.9925"><defs><style>.cls-1{stroke:#000;stroke-miterlimit:10;stroke-width:20px;}</style></defs><title>loma-silhoutte</title><path class="cls-1" d="M195.6289,547.8724c-10.5006,0-21.0749-.8059-31.4887.1452-37.053,3.3837-65.2408-16.1729-74.3686-53.0515C66.5859,401.29,42.69,307.7889,19.1116,214.2093c-2.8626-11.3617-5.0784-22.9085-8.46-34.1079-1.6942-5.6109-.0712-8.826,4.6932-10.2956,5.0885-1.57,8.347,1.0583,9.6945,6.3028,4.1281,16.0654,8.5242,32.0621,12.5918,48.1423q17.2571,68.2217,34.33,136.49,17.1185,68.2463,34.1473,136.515c5.0564,20.3573,23.9673,35.9537,44.6276,35.9686q152.3651.11,304.73.033c1.9793,0,3.9591-.0251,5.9378.0106,5.2974.0957,8.3672,2.7672,8.423,8.0922.058,5.5293-3.5865,6.8513-8.4129,6.8414q-45.2763-.0932-90.5527-.0413c-12.0611-.0014-24.1223,0-35.7212,0,8.8045,5.1745,18.0283,9.9388,26.5321,15.7557,11.1934,7.6565,17.2916,19.1493,20.5808,32.0022q20.1759,78.84,40.0431,157.76,21.5235,84.9037,43.0511,169.8067,17.7675,70.0527,35.5324,140.1063c.1132.4471.2728.99.6516,2.6258-3.1678,0-7.4084-.1874-10.703.0484l-4.9285.0315c-13.108-52.0921-27.9528-109.3838-41.128-161.4591-14.1909-56.09-28.11-112.2482-42.2771-168.3441-11.601-45.9362-23.408-91.82-35.09-137.7363-4.9861-19.5977-24.2264-35.4636-44.5881-35.6271q-57.8907-.4648-115.7872-.012c-21.8183.1934-40.4811,16.86-45.9868,39.0157q-19.426,78.1717-39.3513,156.2193Q92.5872,873.06,63.3467,987.732c-6.6063,26.02-13.0331,52.0853-19.54,78.1235H28.4619c2.3653-9.95,4.4911-19.4062,6.8651-28.8q32.4465-128.3863,64.9665-256.7542c15.3709-60.7344,30.4366-121.5481,46.2583-182.1648,6.1221-23.455,20.2316-40.484,44.6579-47.2134a30.73,30.73,0,0,0,4.5012-2.04Z"/></svg>