<?xml version="1.0" encoding="utf-8"?>
<!-- Generator: Adobe Illustrator 23.0.6, SVG Export Plug-In . SVG Version: 6.00 Build 0)  -->
<svg version="1.1" id="Layer_1" xmlns="http://www.w3.org/2000/svg" xmlns:xlink="http://www.w3.org/1999/xlink" x="0px" y="0px"
	 viewBox="0 0 1920 1080" style="enable-background:new 0 0 1920 1080;" xml:space="preserve">
<style type="text/css">
	.st0{fill:#D9D9D9;}
</style>
<g>
	<path class="st0" d="M924.6,815.9c-13.9,0-27.7,0-41.8,0c-0.1-0.8-0.3-1.5-0.4-2.3c-0.1-0.8,0-1.6,0-2.4c0-175.8,0-351.6,0-527.4
		c0-4.8,0.5-9.5,2.1-14.1c7.5-21.5,33.5-30.2,52.4-17.5c2.7,1.8,5.2,4.1,7.5,6.4c21.6,21.7,43.1,43.5,64.6,65.2
		c32.4,32.9,65.6,65.1,98.9,97.1c0.6,0.6,1.3,1.2,2.3,2c1-1,2-1.9,2.9-2.8c21.8-22.1,43.7-44.2,65.5-66.3
		c30.3-30.7,60.7-61.3,91-91.9c3.2-3.2,6.6-6.3,10.2-9.1c17.9-13.7,48.1-5.9,54.2,20.8c0.7,3.1,1,6.3,1,9.5
		c0.1,79.4,0,158.8,0,238.3c0,1,0,2,0,3.3c-15,6.2-29,14.1-42.4,24.5c0-83.3,0-165.8,0-248.5c-1.9,0.1-2.5,1.3-3.3,2.1
		c-12.9,13-25.8,26-38.7,39c-15.3,15.4-30.5,30.9-45.8,46.3c-23.5,23.7-47,47.3-70.5,71c-5.4,5.5-11.8,9.2-19.5,10.6
		c-12.2,2.1-22.8-1.6-31.5-10.2c-11.8-11.7-23.4-23.6-35-35.4c-13.7-13.8-27.4-27.7-41.1-41.5c-23.6-23.8-47.3-47.6-70.9-71.4
		c-3.4-3.4-6.9-6.6-10.2-9.8c-0.4,0.2-0.5,0.2-0.6,0.2c-0.1,0.1-0.2,0.1-0.2,0.2c-0.1,0.1-0.1,0.2-0.1,0.3c0,0.2,0,0.5,0,0.7
		s0,0.5,0,0.7c0,170.2,0,340.4,0,510.6c0,0.1,0,0.2,0,0.3s0,0.2,0,0.3s0,0.2-0.1,0.3C925,815.4,924.9,815.5,924.6,815.9z"/>
	<path class="st0" d="M730.1,814.3c2.3-9,4.5-18,6.9-27.3c-9.5-3.5-19-6.2-29.4-8.6c1.6-0.9,2.5-1.3,3.4-1.8
		c55.9-27.1,89.9-71.3,102.7-131.9c2.2-10.6,3.1-21.4,3.1-32.2c0-36,0.1-71.9,0.1-107.9c0-13.7,0.1-27.3-0.3-41
		c-2.1-85.7-61.5-155.3-140-173.3c-42.1-9.7-83.2-6.2-122.7,11.5c-41,18.4-85.7,61.4-100.2,119.6c-4.2,17.1-5.8,34.5-5.8,52.1
		c0,26.7,0,53.5,0,80.2c0,20.3-0.3,40.5,0.1,60.8c0.7,38.6,12,73.8,35.4,104.9c0.4,0.5,0.8,1.1,1.5,2c-1.3-0.1-2.1-0.1-2.9-0.3
		c-17-4.3-33.9-8.6-50.9-12.9c-0.2-0.1-0.4-0.1-0.7-0.2c-3.1-0.4-4.7-2.3-6-5.2c-8.3-19.3-13.9-39.4-16.9-60.2
		c-1.4-9.9-2.1-19.9-2.1-29.9c-0.1-36.1-0.2-72.1-0.2-108.2c0-13.9,0-27.8,0.3-41.6c1.2-57.9,21.8-108,61.7-150
		c25.9-27.2,56.3-47.4,92.1-58.9c16.4-5.3,33.2-8.5,50.4-10c16.8-1.5,33.6-1.5,50.4,0.3c40.8,4.5,77.5,19.2,110,44.3
		c24.4,18.8,44.9,41.2,60.1,68.1c14.3,25.1,23,52.1,26.6,80.8c1.6,12.5,2.1,25.2,2.2,37.8c0.1,24,0,48,0,72c0,20.5,0.2,41,0.1,61.4
		c-0.1,22.5-2.7,44.7-9,66.4c-10.3,35.5-28.9,66.1-54.5,92.6c-17.5,18.2-37.3,33.3-59.9,44.7c-1.8,0.9-3.6,1.8-5.5,2.7
		C730.4,814.7,730.2,814.5,730.1,814.3z"/>
	<path class="st0" d="M719.7,796.5c-3.5,13.9-6.9,27.3-10.4,40.8c-8-2-15.6-3.9-23.2-5.9c-58.8-14.9-117.7-29.9-176.5-44.8
		c-28.1-7.1-56.3-14-84.3-21.2c-17-4.4-33.4-10.4-49-18.6c-41.6-21.8-69.6-55.2-84.6-99.6c-4.6-13.6-8.1-27.5-9.4-41.8
		c-0.5-5.5-0.8-11.1-0.8-16.7c-0.1-107-0.1-213.9-0.1-320.9c0-1.2,0-2.5,0-3.6c2.6-0.8,36.5-1,42.4-0.3c0,1.4,0.1,2.8,0.1,4.2
		c0,37.2,0,74.4,0,111.6c0,36.6,0.1,73.3,0.1,109.9c0,31.9-0.2,63.7-0.2,95.6c0,23.2,4.4,45.5,15.3,66.2
		c19.1,36.1,48.5,59.7,87.9,70.4c25.9,7,52,13.3,78,19.9c70,17.8,139.9,35.5,209.9,53.3C716.4,795.4,717.9,795.9,719.7,796.5z"/>
	<path class="st0" d="M1224.4,828.7c-13.5-4.8-26.6-9.3-39.8-14c0.8-2.3,1.4-4.2,2.1-6.1c17.1-48.8,34.1-97.7,51.3-146.4
		c4.2-12,8.8-23.9,13.7-35.6c6.7-15.8,15.7-30.3,26.8-43.4c14.8-17.6,32.6-31.4,53.4-41.1c28.9-13.5,59.4-19.3,91.2-18
		c32.3,1.3,61.7,11.7,88.3,30c31.4,21.6,53.6,50.1,66.2,86.1c19.8,56.7,39.8,113.3,59.7,169.9c0.5,1.4,0.9,2.8,1.4,4.6
		c-13.3,4.7-26.4,9.3-39.8,14c-0.7-1.9-1.3-3.5-1.8-5.1c-18.9-53.7-37.8-107.5-56.7-161.2c-3.8-11-7.9-21.8-14-31.8
		c-21.5-35.2-52.4-57-93.2-62.8c-38.1-5.4-73.6,2.6-104.8,26.1c-17.6,13.3-30,30.7-38.5,50.9c-5.5,13.2-10.3,26.7-15.1,40.2
		c-16.3,46.1-32.4,92.3-48.5,138.4C1225.7,825.2,1225.1,826.7,1224.4,828.7z"/>
	<path class="st0" d="M1334.9,607.8c0,69.4,0,138.6,0,208.1c-14,0-27.9,0-42.2,0c0-1.3-0.1-2.6-0.1-3.9c0-33,0-66,0-98.9
		c0-10.7,0-21.4,0-32.1c0-1.3,0-2.8,0.5-4c3.8-10.5,7.2-21.1,12.1-31.1c6.6-13.4,15-25.4,26.1-35.5c0.8-0.8,1.7-1.5,2.6-2.2
		C1334,607.9,1334.3,607.9,1334.9,607.8z"/>
	<path class="st0" d="M641.9,835c-46.3,2.8-89.4-7.3-128.7-31.9c0.1-0.2,0.1-0.5,0.2-0.7C556.2,813.3,599.1,824.2,641.9,835z"/>
</g>
</svg>
