<svg id="Layer_1" data-name="Layer 1" xmlns="http://www.w3.org/2000/svg" width="764.3466" height="764.3466" viewBox="0 0 764.3466 764.3466"><title>loma-sits</title><path d="M674.0879,69.0528c-8.7294,8.9279-17.0714,17.4333-25.3841,25.9675-11.09,11.3854-22.1114,22.8381-33.2511,34.1747-6.7858,6.9059-7.75,14.0222-2.513,20.4735,5.2544,6.4726,15.5719,7.4567,22.6184.9581,10.4869-9.6719,20.274-20.1085,30.2609-30.3156,8.5559-8.7446,16.78-17.8308,25.6851-26.1967,1.1908-1.1187,6.8323.12,8.1954,1.9337,13.5012,17.9642,21.1026,38.4883,23.5776,60.6906a335.9076,335.9076,0,0,1,1.5858,36.885q.1575,197.3156-.0342,394.6311c-.0514,29.5241-8.0539,56.92-25.6939,81.0537-1.1074,1.5152-2.5337,2.7976-5.69,6.2317-16.2984-17.0677-32.1575-33.72-48.0788-50.3121-3.3643-3.5064-6.9471-6.804-10.4443-10.1821-5.9528-5.75-13.9583-6.2031-20.0493-1.1519-6.2013,5.1427-7.1642,12.7423-2.1513,19.7869a98.6889,98.6889,0,0,0,8.1887,9.567c16.4542,17.78,32.956,35.5158,50.8791,54.8142-9.0893,4.8314-19.8844,11.4387-31.37,16.47-17.1153,7.4979-35.3066,10.1327-54.0646,10.1115q-205.5975-.2325-411.1957-.0861c-31.1456.0012-58.9787-9.5984-84.6827-28.6667,2.3224-2.7112,4.0318-4.9641,5.9991-6.9634,18.1492-18.4441,36.3924-36.7961,54.4914-55.2892,4.9593-5.0673,5.5369-11.0931,1.1744-16.68-4.4813-5.7386-10.5219-8.844-17.8375-5.5117a30.5938,30.5938,0,0,0-8.4584,6.3167C109.7351,633.7761,93.78,649.9448,77.7217,666.01c-2.7023,2.7034-5.66,5.151-8.9225,8.0983-16.8355-20.7557-27.0729-43.9358-27.939-69.653-1.5731-46.71-1.3115-93.489-1.3889-140.24q-.2371-143.2359.0121-286.4724c.0368-31.6411,8.2282-60.7258,29.0882-87.1125,10.09,9.7286,19.9862,19.1637,29.76,28.7244,10.211,9.9881,20.2094,20.1948,30.4812,30.1193,6.9809,6.7448,15.4939,7.1511,21.4925,1.4481,6.118-5.8164,6.0636-15.3689-.8173-22.3335-15.96-16.1546-32.22-32.0125-48.3115-48.0384C97.5656,76.9537,94.15,73.162,90.1627,68.9517c19.5063-15.96,41.1937-24.1572,64.83-27.4309a206.64,206.64,0,0,1,28.11-1.74q200.726-.16,401.4517-.0712c30.5542.001,59.0313,6.9969,84.1849,25.1069C670.2587,65.9107,671.6806,67.14,674.0879,69.0528Z"/></svg>