<svg id="Layer_1" data-name="Layer 1" xmlns="http://www.w3.org/2000/svg" width="764.3466" height="764.3466" viewBox="0 0 764.3466 764.3466"><title>loma-sits</title><path d="M382.51,39.7964c71.116,0,142.2393-.6342,213.346.1792A129.35,129.35,0,0,1,724.1845,167.6944c1.2269,85.7134.5612,171.4548.5951,257.184.0219,55.2036.4757,110.4181-.4339,165.6082-1.0974,66.59-47.9762,120.56-113.6216,131.98a176.6668,176.6668,0,0,1-29.9741,2.1091c-131.8471.1331-263.6958-.2449-395.541.2906-39.7963.1616-74.8385-10.9054-103.71-38.36C56.4659,662.7,41.4485,633.0825,40.234,598.3657c-1.3844-39.5709-.5949-79.2211-.5774-118.8368.0461-104.89-.5163-209.7871.5556-314.6672C40.837,103.7316,89.62,50.3124,149.8565,41.79a219.3,219.3,0,0,1,30.0119-2.192C247.4152,39.4105,314.9628,39.5,382.51,39.5Z"/><path d="M39.9037,380.1513c0-71.7655-.861-143.5445.2626-215.2926C41.1276,103.47,91.15,49.4038,151.882,41.6677A255.57,255.57,0,0,1,183.829,39.61q197.7771-.2025,395.5541-.1448c34.9482-.0389,67.5572,6.7645,95.576,29.1817,31.5375,25.2325,48.386,58.8167,48.9507,98.3165,1.3972,97.73.6818,195.4907.7281,293.2391q.0311,65.7579-.29,131.5158c-.3463,62.1955-48.5378,120.203-112.6522,130.6332a194.7365,194.7365,0,0,1-30.9423,2.2409c-131.8514.1446-263.7043-.2234-395.554.2879-40.1175.1555-75.5076-10.836-104.4273-38.9079C55.9622,661.89,40.59,632.2267,40.1069,597.4c-1.0033-72.4034-.3031-144.83-.3031-217.2478Z"/></svg>