<svg id="Layer_1" data-name="Layer 1" xmlns="http://www.w3.org/2000/svg" width="514.1132" height="916.9925" viewBox="0 0 514.1132 916.9925"><defs><style>.cls-1{stroke:#000;stroke-miterlimit:10;stroke-width:20px;}</style></defs><title>loma-sillhoutte</title><path class="cls-1" d="M229.6978,418.2674c-10.5006,0-21.0749-.8059-31.4887.1452-37.053,3.3837-65.2408-16.1729-74.3686-53.0515-23.1857-93.6765-47.0815-187.1772-70.66-280.7568-2.8626-11.3616-5.0784-22.9084-8.46-34.1079-1.6942-5.6109-.0712-8.826,4.6932-10.2956,5.0885-1.5694,8.347,1.0583,9.6945,6.3029C63.2363,62.569,67.6324,78.5657,71.7,94.6459q17.2571,68.2217,34.33,136.49,17.1185,68.2463,34.1473,136.515c5.0564,20.3573,23.9673,35.9538,44.6276,35.9687q152.3651.11,304.73.033c1.9793,0,3.9591-.0251,5.9378.0106,5.2974.0957,8.3672,2.7672,8.423,8.0922.058,5.5293-3.5865,6.8513-8.4129,6.8414q-45.2763-.0931-90.5527-.0413c-12.0611-.0014-24.1223,0-35.7212,0,8.8045,5.1745,18.0283,9.9388,26.5321,15.7557,11.1934,7.6565,17.2916,19.1493,20.5808,32.0022q20.1758,78.84,40.0431,157.76Q477.8883,708.977,499.416,793.88q17.7675,70.0528,35.5324,140.1063c.1132.4471.2728.99.6517,2.6258-3.1678,0-7.4084-.1874-10.703.0484l-4.9285.0315C506.8605,884.6,492.0157,827.3082,478.8405,775.233c-14.1909-56.09-28.11-112.2482-42.2771-168.3441-11.601-45.9362-23.408-91.8205-35.09-137.7363-4.9861-19.5977-24.2264-35.4636-44.5881-35.6271q-57.8907-.4649-115.7872-.012c-21.8183.1934-40.4811,16.86-45.9868,39.0157Q175.6853,550.7009,155.76,628.7484,126.6561,743.4551,97.4156,858.127c-6.6063,26.02-13.0331,52.0853-19.54,78.1235H62.5308c2.3653-9.95,4.4911-19.4062,6.8651-28.8q32.4465-128.3863,64.9665-256.7542c15.3709-60.7343,30.4366-121.5481,46.2583-182.1648,6.1221-23.455,20.2316-40.484,44.6579-47.2134a30.7191,30.7191,0,0,0,4.5012-2.04Z" transform="translate(-34.0689 -29.7498)"/></svg>